<svg width="76" height="25" viewBox="0 0 76 25" fill="none" xmlns="http://www.w3.org/2000/svg">
<path fill-rule="evenodd" clip-rule="evenodd" d="M22.1526 9.79286C21.6835 10.1361 21.302 10.5732 21.008 11.104C20.6347 11.7973 20.448 12.608 20.448 13.536C20.448 14.464 20.64 15.2747 21.024 15.968C21.3679 16.5889 21.8316 17.0815 22.415 17.4458C20.8948 21.8348 16.5824 24.9999 11.5 24.9999C5.14873 24.9999 0 20.0571 0 13.9599C0 7.8627 5.14873 2.91992 11.5 2.91992C16.3155 2.91992 20.4396 5.76128 22.1526 9.79286Z" fill="#093642"/>
<path d="M32.408 13.392C32.408 13.648 32.392 13.9147 32.36 14.192H26.168C26.2107 14.7467 26.3867 15.1733 26.696 15.472C27.016 15.76 27.4053 15.904 27.864 15.904C28.5467 15.904 29.0213 15.616 29.288 15.04H32.2C32.0507 15.6267 31.7787 16.1547 31.384 16.624C31 17.0933 30.5147 17.4613 29.928 17.728C29.3413 17.9947 28.6853 18.128 27.96 18.128C27.0853 18.128 26.3067 17.9413 25.624 17.568C24.9413 17.1947 24.408 16.6613 24.024 15.968C23.64 15.2747 23.448 14.464 23.448 13.536C23.448 12.608 23.6347 11.7973 24.008 11.104C24.392 10.4107 24.9253 9.87733 25.608 9.504C26.2907 9.13067 27.0747 8.944 27.96 8.944C28.824 8.944 29.592 9.12533 30.264 9.488C30.936 9.85067 31.4587 10.368 31.832 11.04C32.216 11.712 32.408 12.496 32.408 13.392ZM29.608 12.672C29.608 12.2027 29.448 11.8293 29.128 11.552C28.808 11.2747 28.408 11.136 27.928 11.136C27.4693 11.136 27.08 11.2693 26.76 11.536C26.4507 11.8027 26.2587 12.1813 26.184 12.672H29.608ZM37.4834 18.128C36.7047 18.128 36.0114 17.9947 35.4034 17.728C34.7954 17.4613 34.3154 17.0987 33.9634 16.64C33.6114 16.1707 33.414 15.648 33.3714 15.072H36.0754C36.1074 15.3813 36.2514 15.632 36.5074 15.824C36.7634 16.016 37.078 16.112 37.4514 16.112C37.7927 16.112 38.054 16.048 38.2354 15.92C38.4274 15.7813 38.5234 15.6053 38.5234 15.392C38.5234 15.136 38.39 14.9493 38.1234 14.832C37.8567 14.704 37.4247 14.5653 36.8274 14.416C36.1874 14.2667 35.654 14.112 35.2274 13.952C34.8007 13.7813 34.4327 13.52 34.1234 13.168C33.814 12.8053 33.6594 12.32 33.6594 11.712C33.6594 11.2 33.798 10.736 34.0754 10.32C34.3634 9.89333 34.7794 9.55733 35.3234 9.312C35.878 9.06667 36.534 8.944 37.2914 8.944C38.4114 8.944 39.2914 9.22133 39.9314 9.776C40.582 10.3307 40.9554 11.0667 41.0514 11.984H38.5234C38.4807 11.6747 38.342 11.4293 38.1074 11.248C37.8834 11.0667 37.5847 10.976 37.2114 10.976C36.8914 10.976 36.646 11.04 36.4754 11.168C36.3047 11.2853 36.2194 11.4507 36.2194 11.664C36.2194 11.92 36.3527 12.112 36.6194 12.24C36.8967 12.368 37.3234 12.496 37.8994 12.624C38.5607 12.7947 39.0994 12.9653 39.5154 13.136C39.9314 13.296 40.294 13.5627 40.6034 13.936C40.9234 14.2987 41.0887 14.7893 41.0994 15.408C41.0994 15.9307 40.95 16.4 40.6514 16.816C40.3634 17.2213 39.942 17.5413 39.3874 17.776C38.8434 18.0107 38.2087 18.128 37.4834 18.128ZM47.7493 15.68V18H46.3573C45.3653 18 44.5919 17.76 44.0373 17.28C43.4826 16.7893 43.2053 15.9947 43.2053 14.896V11.344H42.1173V9.072H43.2053V6.896H45.9413V9.072H47.7333V11.344H45.9413V14.928C45.9413 15.1947 46.0053 15.3867 46.1333 15.504C46.2613 15.6213 46.4746 15.68 46.7733 15.68H47.7493ZM48.7293 13.52C48.7293 12.6027 48.8999 11.7973 49.2413 11.104C49.5933 10.4107 50.0679 9.87733 50.6653 9.504C51.2626 9.13067 51.9293 8.944 52.6653 8.944C53.2946 8.944 53.8439 9.072 54.3133 9.328C54.7933 9.584 55.1613 9.92 55.4173 10.336V9.072H58.1533V18H55.4173V16.736C55.1506 17.152 54.7773 17.488 54.2973 17.744C53.8279 18 53.2786 18.128 52.6493 18.128C51.9239 18.128 51.2626 17.9413 50.6653 17.568C50.0679 17.184 49.5933 16.6453 49.2413 15.952C48.8999 15.248 48.7293 14.4373 48.7293 13.52ZM55.4173 13.536C55.4173 12.8533 55.2253 12.3147 54.8413 11.92C54.4679 11.5253 54.0093 11.328 53.4653 11.328C52.9213 11.328 52.4573 11.5253 52.0733 11.92C51.6999 12.304 51.5133 12.8373 51.5133 13.52C51.5133 14.2027 51.6999 14.7467 52.0733 15.152C52.4573 15.5467 52.9213 15.744 53.4653 15.744C54.0093 15.744 54.4679 15.5467 54.8413 15.152C55.2253 14.7573 55.4173 14.2187 55.4173 13.536ZM65.1086 15.68V18H63.7166C62.7246 18 61.9513 17.76 61.3966 17.28C60.842 16.7893 60.5646 15.9947 60.5646 14.896V11.344H59.4766V9.072H60.5646V6.896H63.3006V9.072H65.0926V11.344H63.3006V14.928C63.3006 15.1947 63.3646 15.3867 63.4926 15.504C63.6206 15.6213 63.834 15.68 64.1326 15.68H65.1086ZM75.0486 13.392C75.0486 13.648 75.0326 13.9147 75.0006 14.192H68.8086C68.8513 14.7467 69.0273 15.1733 69.3366 15.472C69.6566 15.76 70.046 15.904 70.5046 15.904C71.1873 15.904 71.662 15.616 71.9286 15.04H74.8406C74.6913 15.6267 74.4193 16.1547 74.0246 16.624C73.6406 17.0933 73.1553 17.4613 72.5686 17.728C71.982 17.9947 71.326 18.128 70.6006 18.128C69.726 18.128 68.9473 17.9413 68.2646 17.568C67.582 17.1947 67.0486 16.6613 66.6646 15.968C66.2806 15.2747 66.0886 14.464 66.0886 13.536C66.0886 12.608 66.2753 11.7973 66.6486 11.104C67.0326 10.4107 67.566 9.87733 68.2486 9.504C68.9313 9.13067 69.7153 8.944 70.6006 8.944C71.4646 8.944 72.2326 9.12533 72.9046 9.488C73.5766 9.85067 74.0993 10.368 74.4726 11.04C74.8566 11.712 75.0486 12.496 75.0486 13.392ZM72.2486 12.672C72.2486 12.2027 72.0886 11.8293 71.7686 11.552C71.4486 11.2747 71.0486 11.136 70.5686 11.136C70.11 11.136 69.7206 11.2693 69.4006 11.536C69.0913 11.8027 68.8993 12.1813 68.8246 12.672H72.2486Z" fill="#093642"/>
<path d="M15.384 8.976C16.4933 8.976 17.3733 9.312 18.024 9.984C18.6853 10.656 19.016 11.5893 19.016 12.784V18H16.296V13.152C16.296 12.576 16.1413 12.1333 15.832 11.824C15.5333 11.504 15.1173 11.344 14.584 11.344C14.0507 11.344 13.6293 11.504 13.32 11.824C13.0213 12.1333 12.872 12.576 12.872 13.152V18H10.152V13.152C10.152 12.576 9.99733 12.1333 9.688 11.824C9.38933 11.504 8.97333 11.344 8.44 11.344C7.90667 11.344 7.48533 11.504 7.176 11.824C6.87733 12.1333 6.728 12.576 6.728 13.152V18H3.992V9.072H6.728V10.192C7.00533 9.81867 7.368 9.52533 7.816 9.312C8.264 9.088 8.77067 8.976 9.336 8.976C10.008 8.976 10.6053 9.12 11.128 9.408C11.6613 9.696 12.0773 10.1067 12.376 10.64C12.6853 10.1493 13.1067 9.74933 13.64 9.44C14.1733 9.13067 14.7547 8.976 15.384 8.976Z" fill="white"/>
</svg>
