<svg width="25" height="24" viewBox="0 0 25 24" fill="none" xmlns="http://www.w3.org/2000/svg">
<g clip-path="url(#clip0_125_285)">
<path fill-rule="evenodd" clip-rule="evenodd" d="M11.52 3C12.5031 3.00008 13.459 3.32191 14.242 3.91634C15.0249 4.51077 15.5918 5.34514 15.856 6.292L15.908 6.497L17.778 6.03C17.9147 5.99598 18.057 5.99122 18.1957 6.01602C18.3343 6.04083 18.4662 6.09465 18.5826 6.17395C18.699 6.25325 18.7973 6.35625 18.8712 6.47621C18.945 6.59616 18.9927 6.73035 19.011 6.87L19.02 7V8.81C19.5838 9.35053 20.0458 9.988 20.384 10.692L20.522 11H21.02C21.265 11 21.5014 11.09 21.6844 11.2527C21.8674 11.4155 21.9844 11.6397 22.013 11.883L22.02 12V15C22.02 15.1646 21.9794 15.3266 21.9018 15.4718C21.8242 15.6169 21.7119 15.7407 21.575 15.832L21.467 15.894L20.299 16.479C19.8209 17.4041 19.1282 18.2013 18.279 18.804L18.02 18.978V20C18.02 20.2449 17.9301 20.4813 17.7673 20.6644C17.6045 20.8474 17.3803 20.9643 17.137 20.993L17.02 21H14.02C13.7751 21 13.5387 20.91 13.3556 20.7473C13.1726 20.5845 13.0557 20.3603 13.027 20.117L13.02 20H12.02C12.02 20.2449 11.9301 20.4813 11.7673 20.6644C11.6045 20.8474 11.3803 20.9643 11.137 20.993L11.02 21H8.02002C7.77509 21 7.53868 20.91 7.35565 20.7473C7.17261 20.5845 7.05568 20.3603 7.02702 20.117L7.02002 20V18.978C6.2976 18.5161 5.67357 17.9161 5.18379 17.2123C4.69401 16.5085 4.34812 15.7149 4.16602 14.877C3.57635 14.7015 3.05483 14.3491 2.67207 13.8674C2.28931 13.3857 2.06378 12.7981 2.02602 12.184L2.02002 12V11.5C2.0203 11.2451 2.1179 11 2.29287 10.8146C2.46784 10.6293 2.70697 10.5178 2.96141 10.5028C3.21586 10.4879 3.4664 10.5707 3.66185 10.7343C3.85731 10.8979 3.98292 11.1299 4.01302 11.383L4.02002 11.5V12C4.02002 12.148 4.05202 12.289 4.11002 12.415C4.26265 11.5147 4.60315 10.6567 5.10935 9.89667C5.61555 9.13668 6.2761 8.4918 7.04802 8.004C6.97707 7.37448 7.03983 6.73708 7.23221 6.13349C7.42458 5.52991 7.74223 4.97374 8.16437 4.50138C8.58651 4.02903 9.10362 3.65112 9.68188 3.3924C10.2601 3.13367 10.8865 2.99996 11.52 3ZM16.02 11C15.7548 11 15.5004 11.1054 15.3129 11.2929C15.1254 11.4804 15.02 11.7348 15.02 12C15.02 12.2652 15.1254 12.5196 15.3129 12.7071C15.5004 12.8946 15.7548 13 16.02 13C16.2852 13 16.5396 12.8946 16.7271 12.7071C16.9147 12.5196 17.02 12.2652 17.02 12C17.02 11.7348 16.9147 11.4804 16.7271 11.2929C16.5396 11.1054 16.2852 11 16.02 11ZM11.52 5C10.9143 5 10.3292 5.2199 9.87343 5.61884C9.41765 6.01778 9.12222 6.56862 9.04202 7.169C9.52663 7.05646 10.0225 6.99976 10.52 7H13.897L13.967 6.983C13.8484 6.42196 13.5406 5.91874 13.0951 5.5577C12.6495 5.19666 12.0935 4.99976 11.52 5Z" fill="#093642"/>
</g>
<defs>
<clipPath id="clip0_125_285">
<rect width="24" height="24" fill="white" transform="translate(0.0200195)"/>
</clipPath>
</defs>
</svg>
