<svg width="25" height="24" viewBox="0 0 25 24" fill="none" xmlns="http://www.w3.org/2000/svg">
<g clip-path="url(#clip0_125_294)">
<path fill-rule="evenodd" clip-rule="evenodd" d="M12.2814 2.195C12.734 2.02533 13.2328 2.02533 13.6854 2.195L20.6854 4.82C21.0667 4.96293 21.3953 5.21885 21.6272 5.55355C21.8592 5.88825 21.9834 6.28578 21.9834 6.693V12.056C21.9834 13.7274 21.518 15.3658 20.6393 16.7877C19.7606 18.2095 18.5034 19.3585 17.0084 20.106L13.6544 21.782C13.4461 21.8862 13.2163 21.9404 12.9834 21.9404C12.7505 21.9404 12.5207 21.8862 12.3124 21.782L8.9584 20.105C7.46344 19.3575 6.20617 18.2085 5.32747 16.7867C4.44877 15.3648 3.98336 13.7264 3.9834 12.055V6.694C3.98314 6.28661 4.1073 5.88886 4.33927 5.55396C4.57123 5.21907 4.89993 4.96299 5.2814 4.82L12.2814 2.195ZM13.9834 11.732C14.3647 11.5119 14.6626 11.1721 14.8311 10.7653C14.9996 10.3586 15.0291 9.9076 14.9152 9.48235C14.8012 9.0571 14.5501 8.68133 14.2009 8.41332C13.8516 8.1453 13.4237 8.00002 12.9834 8C12.5431 8.00002 12.1152 8.1453 11.7659 8.41332C11.4167 8.68133 11.1656 9.0571 11.0516 9.48235C10.9377 9.9076 10.9672 10.3586 11.1357 10.7653C11.3042 11.1721 11.6021 11.5119 11.9834 11.732V15C11.9834 15.2652 12.0888 15.5196 12.2763 15.7071C12.4638 15.8946 12.7182 16 12.9834 16C13.2486 16 13.503 15.8946 13.6905 15.7071C13.878 15.5196 13.9834 15.2652 13.9834 15V11.732Z" fill="#093642"/>
</g>
<defs>
<clipPath id="clip0_125_294">
<rect width="24" height="24" fill="white" transform="translate(0.983398)"/>
</clipPath>
</defs>
</svg>
