<svg width="25" height="24" viewBox="0 0 25 24" fill="none" xmlns="http://www.w3.org/2000/svg">
<path d="M19.3461 18.9C19.7861 18.21 20.0361 17.38 20.0361 16.5C20.0361 14 18.0361 12 15.5361 12C13.0361 12 11.0361 14 11.0361 16.5C11.0361 19 13.0361 21 15.5361 21C16.4061 21 17.2261 20.75 17.9161 20.32L21.0361 23.39L22.4261 22L19.3461 18.9ZM15.5361 19C14.8731 19 14.2372 18.7366 13.7684 18.2678C13.2995 17.7989 13.0361 17.163 13.0361 16.5C13.0361 15.837 13.2995 15.2011 13.7684 14.7322C14.2372 14.2634 14.8731 14 15.5361 14C16.1992 14 16.8351 14.2634 17.3039 14.7322C17.7727 15.2011 18.0361 15.837 18.0361 16.5C18.0361 17.163 17.7727 17.7989 17.3039 18.2678C16.8351 18.7366 16.1992 19 15.5361 19ZM5.03613 20V12H2.03613L12.0361 3L22.0361 12H20.2161C19.0361 10.77 17.3761 10 15.5361 10C11.9561 10 9.03613 12.92 9.03613 16.5C9.03613 17.79 9.41613 19 10.0661 20H5.03613Z" fill="#093642"/>
</svg>
